<mxfile host="app.diagrams.net" modified="2023-09-15T04:23:32.345Z" agent="Mozilla/5.0 (Windows NT 10.0; Win64; x64) AppleWebKit/537.36 (KHTML, like Gecko) Chrome/116.0.0.0 Safari/537.36 Edg/116.0.1938.76" etag="SrJIlh5fKhflT88P330o" version="21.7.5" type="github">
  <diagram name="페이지-1" id="knAnGEJPWI2h3G_Fuzur">
    <mxGraphModel dx="2611" dy="1356" grid="1" gridSize="10" guides="1" tooltips="1" connect="1" arrows="1" fold="1" page="1" pageScale="1" pageWidth="827" pageHeight="1169" math="0" shadow="0">
      <root>
        <mxCell id="0" />
        <mxCell id="1" parent="0" />
        <mxCell id="KJRf7U8PRMHWlbD5ESDK-1" value="Actor" style="shape=umlActor;verticalLabelPosition=bottom;verticalAlign=top;html=1;outlineConnect=0;" parent="1" vertex="1">
          <mxGeometry x="40" y="340" width="30" height="60" as="geometry" />
        </mxCell>
        <mxCell id="KJRf7U8PRMHWlbD5ESDK-2" value="(권도영)" style="text;html=1;align=center;verticalAlign=middle;resizable=0;points=[];autosize=1;strokeColor=none;fillColor=none;" parent="1" vertex="1">
          <mxGeometry x="20" y="420" width="70" height="30" as="geometry" />
        </mxCell>
        <mxCell id="KJRf7U8PRMHWlbD5ESDK-5" value="Actor" style="shape=umlActor;verticalLabelPosition=bottom;verticalAlign=top;html=1;outlineConnect=0;" parent="1" vertex="1">
          <mxGeometry x="770" y="340" width="30" height="60" as="geometry" />
        </mxCell>
        <mxCell id="KJRf7U8PRMHWlbD5ESDK-6" value="(엄마)" style="text;html=1;align=center;verticalAlign=middle;resizable=0;points=[];autosize=1;strokeColor=none;fillColor=none;" parent="1" vertex="1">
          <mxGeometry x="755" y="420" width="60" height="30" as="geometry" />
        </mxCell>
        <mxCell id="KJRf7U8PRMHWlbD5ESDK-7" value="Actor" style="shape=umlActor;verticalLabelPosition=bottom;verticalAlign=top;html=1;outlineConnect=0;" parent="1" vertex="1">
          <mxGeometry x="50" y="940" width="30" height="60" as="geometry" />
        </mxCell>
        <mxCell id="KJRf7U8PRMHWlbD5ESDK-8" value="(권도영)" style="text;html=1;align=center;verticalAlign=middle;resizable=0;points=[];autosize=1;strokeColor=none;fillColor=none;" parent="1" vertex="1">
          <mxGeometry x="757" y="1020" width="70" height="30" as="geometry" />
        </mxCell>
        <mxCell id="KJRf7U8PRMHWlbD5ESDK-9" value="Actor" style="shape=umlActor;verticalLabelPosition=bottom;verticalAlign=top;html=1;outlineConnect=0;" parent="1" vertex="1">
          <mxGeometry x="780" y="940" width="30" height="60" as="geometry" />
        </mxCell>
        <mxCell id="KJRf7U8PRMHWlbD5ESDK-10" value="(엄마)" style="text;html=1;align=center;verticalAlign=middle;resizable=0;points=[];autosize=1;strokeColor=none;fillColor=none;" parent="1" vertex="1">
          <mxGeometry x="32" y="1020" width="60" height="30" as="geometry" />
        </mxCell>
        <mxCell id="7rCKcIcT-Zd6SS427mmO-4" value="" style="edgeStyle=orthogonalEdgeStyle;rounded=0;orthogonalLoop=1;jettySize=auto;html=1;" edge="1" parent="1" source="KJRf7U8PRMHWlbD5ESDK-11" target="7rCKcIcT-Zd6SS427mmO-3">
          <mxGeometry relative="1" as="geometry" />
        </mxCell>
        <mxCell id="KJRf7U8PRMHWlbD5ESDK-11" value="귀가 시&lt;br&gt;집에 왔다고 인사한다" style="ellipse;whiteSpace=wrap;html=1;" parent="1" vertex="1">
          <mxGeometry x="330" y="170" width="120" height="80" as="geometry" />
        </mxCell>
        <mxCell id="KJRf7U8PRMHWlbD5ESDK-13" value="주제: 엄마와의 관계" style="rounded=0;whiteSpace=wrap;html=1;" parent="1" vertex="1">
          <mxGeometry x="40" y="40" width="170" height="80" as="geometry" />
        </mxCell>
        <mxCell id="KJRf7U8PRMHWlbD5ESDK-14" value="" style="endArrow=classic;html=1;rounded=0;exitX=0.5;exitY=0.5;exitDx=0;exitDy=0;exitPerimeter=0;entryX=0;entryY=1;entryDx=0;entryDy=0;" parent="1" source="KJRf7U8PRMHWlbD5ESDK-1" target="7rCKcIcT-Zd6SS427mmO-34" edge="1">
          <mxGeometry width="50" height="50" relative="1" as="geometry">
            <mxPoint x="550" y="250" as="sourcePoint" />
            <mxPoint x="140" y="280" as="targetPoint" />
          </mxGeometry>
        </mxCell>
        <mxCell id="7rCKcIcT-Zd6SS427mmO-20" value="" style="edgeStyle=orthogonalEdgeStyle;rounded=0;orthogonalLoop=1;jettySize=auto;html=1;" edge="1" parent="1" source="7rCKcIcT-Zd6SS427mmO-1" target="7rCKcIcT-Zd6SS427mmO-19">
          <mxGeometry relative="1" as="geometry" />
        </mxCell>
        <mxCell id="7rCKcIcT-Zd6SS427mmO-1" value="나를 낳아주셨다" style="ellipse;whiteSpace=wrap;html=1;" vertex="1" parent="1">
          <mxGeometry x="270" y="395" width="120" height="80" as="geometry" />
        </mxCell>
        <mxCell id="7rCKcIcT-Zd6SS427mmO-2" value="" style="endArrow=classic;html=1;rounded=0;exitX=0.5;exitY=0.5;exitDx=0;exitDy=0;exitPerimeter=0;entryX=0;entryY=0.5;entryDx=0;entryDy=0;" edge="1" parent="1" target="7rCKcIcT-Zd6SS427mmO-1" source="KJRf7U8PRMHWlbD5ESDK-1">
          <mxGeometry width="50" height="50" relative="1" as="geometry">
            <mxPoint x="70" y="369.5" as="sourcePoint" />
            <mxPoint x="265" y="369.5" as="targetPoint" />
          </mxGeometry>
        </mxCell>
        <mxCell id="7rCKcIcT-Zd6SS427mmO-3" value="엄마와 대화한다" style="ellipse;whiteSpace=wrap;html=1;" vertex="1" parent="1">
          <mxGeometry x="490" y="170" width="120" height="80" as="geometry" />
        </mxCell>
        <mxCell id="7rCKcIcT-Zd6SS427mmO-15" value="" style="edgeStyle=orthogonalEdgeStyle;rounded=0;orthogonalLoop=1;jettySize=auto;html=1;" edge="1" parent="1" source="7rCKcIcT-Zd6SS427mmO-7" target="7rCKcIcT-Zd6SS427mmO-14">
          <mxGeometry relative="1" as="geometry" />
        </mxCell>
        <mxCell id="7rCKcIcT-Zd6SS427mmO-7" value="집에 도착한다" style="ellipse;whiteSpace=wrap;html=1;" vertex="1" parent="1">
          <mxGeometry x="260" y="760" width="120" height="80" as="geometry" />
        </mxCell>
        <mxCell id="7rCKcIcT-Zd6SS427mmO-9" value="" style="endArrow=classic;html=1;rounded=0;entryX=-0.003;entryY=0.6;entryDx=0;entryDy=0;entryPerimeter=0;exitX=0.5;exitY=0.5;exitDx=0;exitDy=0;exitPerimeter=0;" edge="1" parent="1" target="7rCKcIcT-Zd6SS427mmO-7" source="KJRf7U8PRMHWlbD5ESDK-7">
          <mxGeometry width="50" height="50" relative="1" as="geometry">
            <mxPoint x="65" y="970" as="sourcePoint" />
            <mxPoint x="610" y="799" as="targetPoint" />
          </mxGeometry>
        </mxCell>
        <mxCell id="7rCKcIcT-Zd6SS427mmO-43" value="" style="edgeStyle=orthogonalEdgeStyle;rounded=0;orthogonalLoop=1;jettySize=auto;html=1;" edge="1" parent="1" source="7rCKcIcT-Zd6SS427mmO-11" target="7rCKcIcT-Zd6SS427mmO-41">
          <mxGeometry relative="1" as="geometry" />
        </mxCell>
        <mxCell id="7rCKcIcT-Zd6SS427mmO-11" value="셋째를 낳았다" style="ellipse;whiteSpace=wrap;html=1;" vertex="1" parent="1">
          <mxGeometry x="240" y="970" width="120" height="80" as="geometry" />
        </mxCell>
        <mxCell id="7rCKcIcT-Zd6SS427mmO-12" value="" style="endArrow=classic;html=1;rounded=0;exitX=0.5;exitY=0.5;exitDx=0;exitDy=0;exitPerimeter=0;entryX=0;entryY=0.5;entryDx=0;entryDy=0;" edge="1" parent="1" target="7rCKcIcT-Zd6SS427mmO-11" source="KJRf7U8PRMHWlbD5ESDK-7">
          <mxGeometry width="50" height="50" relative="1" as="geometry">
            <mxPoint x="65" y="969" as="sourcePoint" />
            <mxPoint x="275" y="968.5" as="targetPoint" />
          </mxGeometry>
        </mxCell>
        <mxCell id="7rCKcIcT-Zd6SS427mmO-14" value="딸과 대화를 한다" style="ellipse;whiteSpace=wrap;html=1;" vertex="1" parent="1">
          <mxGeometry x="520" y="760" width="120" height="80" as="geometry" />
        </mxCell>
        <mxCell id="7rCKcIcT-Zd6SS427mmO-16" value="" style="endArrow=classic;html=1;rounded=0;exitX=1.003;exitY=0.588;exitDx=0;exitDy=0;exitPerimeter=0;entryX=0.5;entryY=0.5;entryDx=0;entryDy=0;entryPerimeter=0;" edge="1" parent="1" source="7rCKcIcT-Zd6SS427mmO-14" target="KJRf7U8PRMHWlbD5ESDK-9">
          <mxGeometry width="50" height="50" relative="1" as="geometry">
            <mxPoint x="540" y="802" as="sourcePoint" />
            <mxPoint x="695" y="640" as="targetPoint" />
          </mxGeometry>
        </mxCell>
        <mxCell id="7rCKcIcT-Zd6SS427mmO-19" value="감사함을 느낀다" style="ellipse;whiteSpace=wrap;html=1;" vertex="1" parent="1">
          <mxGeometry x="500" y="395" width="120" height="80" as="geometry" />
        </mxCell>
        <mxCell id="7rCKcIcT-Zd6SS427mmO-26" value="" style="endArrow=classic;html=1;rounded=0;exitX=1;exitY=0.5;exitDx=0;exitDy=0;entryX=0.5;entryY=0.5;entryDx=0;entryDy=0;entryPerimeter=0;" edge="1" parent="1" source="7rCKcIcT-Zd6SS427mmO-19" target="KJRf7U8PRMHWlbD5ESDK-5">
          <mxGeometry width="50" height="50" relative="1" as="geometry">
            <mxPoint x="645" y="420" as="sourcePoint" />
            <mxPoint x="800" y="583" as="targetPoint" />
          </mxGeometry>
        </mxCell>
        <mxCell id="7rCKcIcT-Zd6SS427mmO-27" value="" style="endArrow=classic;html=1;rounded=0;exitX=1;exitY=0.5;exitDx=0;exitDy=0;entryX=0.5;entryY=0.5;entryDx=0;entryDy=0;entryPerimeter=0;" edge="1" parent="1" source="7rCKcIcT-Zd6SS427mmO-3" target="KJRf7U8PRMHWlbD5ESDK-5">
          <mxGeometry width="50" height="50" relative="1" as="geometry">
            <mxPoint x="630" y="660" as="sourcePoint" />
            <mxPoint x="780" y="405" as="targetPoint" />
          </mxGeometry>
        </mxCell>
        <mxCell id="7rCKcIcT-Zd6SS427mmO-28" value="&amp;lt;&amp;lt;extend&amp;gt;&amp;gt;" style="html=1;verticalAlign=bottom;labelBackgroundColor=none;endArrow=open;endFill=0;dashed=1;rounded=0;entryX=0.664;entryY=0.983;entryDx=0;entryDy=0;entryPerimeter=0;exitX=0.321;exitY=0.038;exitDx=0;exitDy=0;exitPerimeter=0;" edge="1" parent="1" source="7rCKcIcT-Zd6SS427mmO-3" target="7rCKcIcT-Zd6SS427mmO-30">
          <mxGeometry x="-0.1845" y="-21" width="160" relative="1" as="geometry">
            <mxPoint x="550" y="170" as="sourcePoint" />
            <mxPoint x="510" y="100" as="targetPoint" />
            <mxPoint as="offset" />
          </mxGeometry>
        </mxCell>
        <mxCell id="7rCKcIcT-Zd6SS427mmO-29" value="&amp;lt;&amp;lt;extend&amp;gt;&amp;gt;" style="html=1;verticalAlign=bottom;labelBackgroundColor=none;endArrow=open;endFill=0;dashed=1;rounded=0;exitX=0.732;exitY=0.057;exitDx=0;exitDy=0;exitPerimeter=0;entryX=0.37;entryY=0.995;entryDx=0;entryDy=0;entryPerimeter=0;" edge="1" parent="1" source="7rCKcIcT-Zd6SS427mmO-3" target="7rCKcIcT-Zd6SS427mmO-31">
          <mxGeometry x="0.0041" width="160" relative="1" as="geometry">
            <mxPoint x="560" y="180" as="sourcePoint" />
            <mxPoint x="640" y="100" as="targetPoint" />
            <mxPoint as="offset" />
          </mxGeometry>
        </mxCell>
        <mxCell id="7rCKcIcT-Zd6SS427mmO-30" value="엄마가 배고프다는 밀에&lt;br&gt;식사를 차린다" style="ellipse;whiteSpace=wrap;html=1;" vertex="1" parent="1">
          <mxGeometry x="420" y="20" width="130" height="80" as="geometry" />
        </mxCell>
        <mxCell id="7rCKcIcT-Zd6SS427mmO-31" value="성경공부를 한다" style="ellipse;whiteSpace=wrap;html=1;" vertex="1" parent="1">
          <mxGeometry x="590" y="20" width="120" height="80" as="geometry" />
        </mxCell>
        <mxCell id="7rCKcIcT-Zd6SS427mmO-35" value="" style="edgeStyle=orthogonalEdgeStyle;rounded=0;orthogonalLoop=1;jettySize=auto;html=1;" edge="1" parent="1" source="7rCKcIcT-Zd6SS427mmO-34" target="KJRf7U8PRMHWlbD5ESDK-11">
          <mxGeometry relative="1" as="geometry" />
        </mxCell>
        <mxCell id="7rCKcIcT-Zd6SS427mmO-34" value="본가에 같이 산다" style="ellipse;whiteSpace=wrap;html=1;" vertex="1" parent="1">
          <mxGeometry x="150" y="170" width="120" height="80" as="geometry" />
        </mxCell>
        <mxCell id="7rCKcIcT-Zd6SS427mmO-36" value="&amp;lt;&amp;lt;extend&amp;gt;&amp;gt;" style="html=1;verticalAlign=bottom;labelBackgroundColor=none;endArrow=open;endFill=0;dashed=1;rounded=0;entryX=0.664;entryY=0.983;entryDx=0;entryDy=0;entryPerimeter=0;exitX=0.321;exitY=0.038;exitDx=0;exitDy=0;exitPerimeter=0;" edge="1" parent="1" target="7rCKcIcT-Zd6SS427mmO-38">
          <mxGeometry x="-0.1845" y="-21" width="160" relative="1" as="geometry">
            <mxPoint x="559" y="763" as="sourcePoint" />
            <mxPoint x="540" y="690" as="targetPoint" />
            <mxPoint as="offset" />
          </mxGeometry>
        </mxCell>
        <mxCell id="7rCKcIcT-Zd6SS427mmO-37" value="&amp;lt;&amp;lt;extend&amp;gt;&amp;gt;" style="html=1;verticalAlign=bottom;labelBackgroundColor=none;endArrow=open;endFill=0;dashed=1;rounded=0;exitX=0.732;exitY=0.057;exitDx=0;exitDy=0;exitPerimeter=0;entryX=0.37;entryY=0.995;entryDx=0;entryDy=0;entryPerimeter=0;" edge="1" parent="1" target="7rCKcIcT-Zd6SS427mmO-39">
          <mxGeometry x="0.0041" width="160" relative="1" as="geometry">
            <mxPoint x="608" y="765" as="sourcePoint" />
            <mxPoint x="670" y="690" as="targetPoint" />
            <mxPoint as="offset" />
          </mxGeometry>
        </mxCell>
        <mxCell id="7rCKcIcT-Zd6SS427mmO-38" value="식사를 요구한다" style="ellipse;whiteSpace=wrap;html=1;" vertex="1" parent="1">
          <mxGeometry x="450" y="610" width="130" height="80" as="geometry" />
        </mxCell>
        <mxCell id="7rCKcIcT-Zd6SS427mmO-39" value="성경공부를 한다" style="ellipse;whiteSpace=wrap;html=1;" vertex="1" parent="1">
          <mxGeometry x="620" y="610" width="120" height="80" as="geometry" />
        </mxCell>
        <mxCell id="7rCKcIcT-Zd6SS427mmO-41" value="정성껏 양육한다" style="ellipse;whiteSpace=wrap;html=1;" vertex="1" parent="1">
          <mxGeometry x="472.5" y="970" width="120" height="80" as="geometry" />
        </mxCell>
        <mxCell id="7rCKcIcT-Zd6SS427mmO-42" value="" style="endArrow=classic;html=1;rounded=0;exitX=1;exitY=0.5;exitDx=0;exitDy=0;entryX=0.5;entryY=0.5;entryDx=0;entryDy=0;entryPerimeter=0;" edge="1" parent="1" source="7rCKcIcT-Zd6SS427mmO-41" target="KJRf7U8PRMHWlbD5ESDK-9">
          <mxGeometry width="50" height="50" relative="1" as="geometry">
            <mxPoint x="617.5" y="995" as="sourcePoint" />
            <mxPoint x="758" y="945" as="targetPoint" />
          </mxGeometry>
        </mxCell>
      </root>
    </mxGraphModel>
  </diagram>
</mxfile>
